<?xml version="1.0" encoding="UTF-8"?><svg id="Layer_1" xmlns="http://www.w3.org/2000/svg" xmlns:xlink="http://www.w3.org/1999/xlink" viewBox="0 0 128 98"><defs><linearGradient id="linear-gradient" x1="59.57" y1="80.19" x2="55.59" y2="61.66" gradientTransform="translate(0 128.72) scale(1 -1)" gradientUnits="userSpaceOnUse"><stop offset=".23" stop-color="#eceaeb"/><stop offset="1" stop-color="#010101"/></linearGradient></defs><path d="M102.99,78.12c-12.75,0-23.12-10.37-23.12-23.12s10.37-23.12,23.12-23.12,23.12,10.37,23.12,23.12-10.37,23.12-23.12,23.12ZM102.99,42.25c-7.03,0-12.75,5.72-12.75,12.75s5.72,12.75,12.75,12.75,12.75-5.72,12.75-12.75-5.72-12.75-12.75-12.75Z" fill="#eceaeb"/><path d="M82.89,80.99h-12.75s-.08,0-.13,0c-2.43-8.92-10.57-15.61-20.2-15.79l-1.09-.02c-.64-2.08-.99-4.29-.99-6.58v-6.04l2.32.04c4.8.09,9.37,1.2,13.5,3.12,10.03,4.66,17.46,14.09,19.34,25.27h0Z" fill="#eceaeb"/><path d="M73.77,25.76l-.13,6.54c-.18,9.12-4.02,17.4-10.1,23.42-4.13-1.92-8.69-3.03-13.5-3.12l-2.32-.04v-1.13c7.65-3.15,13.15-10.64,13.32-19.36l.13-6.54,12.59.24h0Z" fill="url(#linear-gradient)"/><path d="M62.72,36.9c-.27.06-.55.12-.83.17v-.18s.83.02.83.02h0Z" fill="#eceaeb"/><path d="M127.92,85.76v12.6h-57.79c-21.92,0-39.76-17.84-39.76-39.76v-10.89c0-14.98-12.19-27.17-27.17-27.17H-.11V7.93h3.31c21.92,0,39.76,17.84,39.76,39.76v10.89c0,2.33.29,4.59.85,6.75,3.01,11.72,13.66,20.41,26.31,20.41h57.79Z" fill="#f7a828"/></svg>
