<svg width="1200" height="900" viewBox="0 0 1200 900" fill="none" xmlns="http://www.w3.org/2000/svg">
  <rect width="1200" height="900" rx="48" fill="#F7F2FF"/>
  <rect x="54" y="54" width="1092" height="792" rx="36" fill="url(#bg)"/>
  <rect x="132" y="142" width="936" height="616" rx="36" fill="#FFFFFF" fill-opacity="0.08" stroke="#FFFFFF" stroke-opacity="0.14" stroke-width="2"/>
  <rect x="186" y="198" width="320" height="214" rx="28" fill="#FFFFFF" fill-opacity="0.94"/>
  <rect x="218" y="234" width="108" height="108" rx="24" fill="#5C308F"/>
  <rect x="346" y="244" width="118" height="16" rx="8" fill="#5C308F" fill-opacity="0.2"/>
  <rect x="346" y="274" width="96" height="14" rx="7" fill="#5C308F" fill-opacity="0.12"/>
  <rect x="346" y="320" width="90" height="38" rx="14" fill="#F7A829"/>
  <rect x="186" y="444" width="882" height="258" rx="30" fill="#201236" fill-opacity="0.98"/>
  <rect x="224" y="486" width="190" height="16" rx="8" fill="#FFFFFF" fill-opacity="0.82"/>
  <rect x="224" y="516" width="298" height="14" rx="7" fill="#FFFFFF" fill-opacity="0.18"/>
  <rect x="224" y="544" width="258" height="14" rx="7" fill="#FFFFFF" fill-opacity="0.18"/>
  <rect x="224" y="590" width="360" height="72" rx="22" fill="#FFFFFF" fill-opacity="0.08" stroke="#FFFFFF" stroke-opacity="0.1"/>
  <rect x="624" y="486" width="182" height="176" rx="24" fill="#F7A829"/>
  <rect x="826" y="486" width="182" height="176" rx="24" fill="#FFFFFF" fill-opacity="0.08" stroke="#FFFFFF" stroke-opacity="0.12"/>
  <circle cx="270" cy="288" r="28" fill="#F7A829"/>
  <circle cx="714" cy="574" r="52" fill="#31184A"/>
  <circle cx="716" cy="572" r="30" fill="#F6C798"/>
  <path d="M696 548C696 548 707 536 721 536C735 536 744 552 744 552C744 552 732 560 719 560C706 560 696 548 696 548Z" fill="#5C308F"/>
  <circle cx="918" cy="574" r="52" fill="#6E39A9"/>
  <circle cx="918" cy="572" r="30" fill="#E7BE97"/>
  <path d="M898 548C898 548 909 536 923 536C937 536 946 552 946 552C946 552 934 560 921 560C908 560 898 548 898 548Z" fill="#F7A829"/>
  <text x="136" y="108" fill="#FFFFFF" fill-opacity="0.78" font-family="Arial, sans-serif" font-size="28" font-weight="700" letter-spacing="4">PLACEHOLDER</text>
  <defs>
    <linearGradient id="bg" x1="54" y1="54" x2="1146" y2="846" gradientUnits="userSpaceOnUse">
      <stop stop-color="#32124F"/>
      <stop offset="0.5" stop-color="#5C308F"/>
      <stop offset="1" stop-color="#F7A829"/>
    </linearGradient>
  </defs>
</svg>
