<svg width="1200" height="900" viewBox="0 0 1200 900" fill="none" xmlns="http://www.w3.org/2000/svg">
  <rect width="1200" height="900" rx="48" fill="#FFF9EE"/>
  <rect x="54" y="54" width="1092" height="792" rx="36" fill="url(#bg)"/>
  <circle cx="962" cy="176" r="118" fill="#FFFFFF" fill-opacity="0.12"/>
  <circle cx="188" cy="748" r="138" fill="#5C308F" fill-opacity="0.16"/>
  <rect x="170" y="200" width="860" height="460" rx="38" fill="#FFF7EB"/>
  <rect x="214" y="244" width="772" height="170" rx="28" fill="url(#voucher)"/>
  <rect x="214" y="448" width="772" height="170" rx="28" fill="#FFFFFF"/>
  <circle cx="214" cy="533" r="22" fill="url(#bg)"/>
  <circle cx="986" cy="533" r="22" fill="url(#bg)"/>
  <path d="M246 533H954" stroke="#E2CCAE" stroke-width="4" stroke-dasharray="16 14"/>
  <rect x="272" y="294" width="168" height="26" rx="13" fill="#FFFFFF" fill-opacity="0.32"/>
  <rect x="750" y="286" width="170" height="42" rx="21" fill="#FFFFFF" fill-opacity="0.18"/>
  <rect x="272" y="494" width="180" height="20" rx="10" fill="#5C308F" fill-opacity="0.18"/>
  <rect x="272" y="530" width="304" height="26" rx="13" fill="#5C308F" fill-opacity="0.12"/>
  <rect x="272" y="574" width="146" height="18" rx="9" fill="#5C308F" fill-opacity="0.12"/>
  <rect x="746" y="486" width="176" height="88" rx="22" fill="#F7F0E2"/>
  <path d="M586 192C586 153.34 617.34 122 656 122V122C694.66 122 726 153.34 726 192V216H586V192Z" fill="#FFD3A5"/>
  <circle cx="656" cy="178" r="44" fill="#6E3BA9"/>
  <rect x="612" y="212" width="88" height="108" rx="28" fill="#F7A829"/>
  <path d="M698 212C698 173.34 729.34 142 768 142V142C806.66 142 838 173.34 838 212V236H698V212Z" fill="#FFDAB3"/>
  <circle cx="768" cy="198" r="44" fill="#3B1A5A"/>
  <rect x="724" y="232" width="88" height="96" rx="28" fill="#F7A829"/>
  <text x="136" y="108" fill="#FFFFFF" fill-opacity="0.78" font-family="Arial, sans-serif" font-size="28" font-weight="700" letter-spacing="4">PLACEHOLDER</text>
  <defs>
    <linearGradient id="bg" x1="54" y1="54" x2="1146" y2="846" gradientUnits="userSpaceOnUse">
      <stop stop-color="#3B1A5A"/>
      <stop offset="0.58" stop-color="#6A38A4"/>
      <stop offset="1" stop-color="#F7A829"/>
    </linearGradient>
    <linearGradient id="voucher" x1="214" y1="244" x2="986" y2="414" gradientUnits="userSpaceOnUse">
      <stop stop-color="#5C308F"/>
      <stop offset="1" stop-color="#F7A829"/>
    </linearGradient>
  </defs>
</svg>
