<svg width="1200" height="900" viewBox="0 0 1200 900" fill="none" xmlns="http://www.w3.org/2000/svg">
  <rect width="1200" height="900" rx="48" fill="#F7F1FF"/>
  <rect x="54" y="54" width="1092" height="792" rx="36" fill="url(#bg)"/>
  <circle cx="958" cy="195" r="126" fill="#F7A829" fill-opacity="0.24"/>
  <circle cx="219" cy="731" r="144" fill="#7B46B3" fill-opacity="0.18"/>
  <rect x="136" y="148" width="420" height="584" rx="32" fill="#FFFFFF" fill-opacity="0.94"/>
  <rect x="175" y="198" width="342" height="196" rx="24" fill="url(#card1)"/>
  <rect x="175" y="424" width="160" height="22" rx="11" fill="#5C308F" fill-opacity="0.18"/>
  <rect x="175" y="463" width="292" height="18" rx="9" fill="#5C308F" fill-opacity="0.12"/>
  <rect x="175" y="492" width="248" height="18" rx="9" fill="#5C308F" fill-opacity="0.12"/>
  <rect x="175" y="552" width="136" height="110" rx="20" fill="#F8B84E"/>
  <rect x="331" y="552" width="186" height="110" rx="20" fill="#F3E7FF"/>
  <rect x="630" y="196" width="430" height="240" rx="34" fill="#201236" fill-opacity="0.96"/>
  <rect x="664" y="236" width="168" height="18" rx="9" fill="#FFFFFF" fill-opacity="0.88"/>
  <rect x="664" y="272" width="250" height="14" rx="7" fill="#FFFFFF" fill-opacity="0.22"/>
  <rect x="664" y="301" width="206" height="14" rx="7" fill="#FFFFFF" fill-opacity="0.22"/>
  <rect x="664" y="352" width="118" height="52" rx="18" fill="#F7A829"/>
  <rect x="812" y="352" width="118" height="52" rx="18" fill="#FFFFFF" fill-opacity="0.1"/>
  <rect x="744" y="494" width="250" height="196" rx="30" fill="#FFFFFF" fill-opacity="0.9"/>
  <rect x="604" y="546" width="202" height="128" rx="28" fill="#6B38A6"/>
  <path d="M238 298C238 257.131 271.131 224 312 224H380C420.869 224 454 257.131 454 298V334H238V298Z" fill="#F5D9B3"/>
  <circle cx="346" cy="281" r="54" fill="#2E1A47"/>
  <rect x="290" y="336" width="112" height="86" rx="28" fill="#5C308F"/>
  <path d="M846 551C846 509.026 880.026 475 922 475H962C1003.97 475 1038 509.026 1038 551V583H846V551Z" fill="#E8C39F"/>
  <circle cx="942" cy="532" r="58" fill="#3B1A5A"/>
  <rect x="884" y="588" width="116" height="82" rx="26" fill="#F7A829"/>
  <text x="136" y="108" fill="#FFFFFF" fill-opacity="0.78" font-family="Arial, sans-serif" font-size="28" font-weight="700" letter-spacing="4">PLACEHOLDER</text>
  <defs>
    <linearGradient id="bg" x1="54" y1="54" x2="1126" y2="846" gradientUnits="userSpaceOnUse">
      <stop stop-color="#4B1F75"/>
      <stop offset="0.58" stop-color="#6D39AA"/>
      <stop offset="1" stop-color="#F4B13C"/>
    </linearGradient>
    <linearGradient id="card1" x1="175" y1="198" x2="517" y2="394" gradientUnits="userSpaceOnUse">
      <stop stop-color="#5C308F"/>
      <stop offset="1" stop-color="#F7A829"/>
    </linearGradient>
  </defs>
</svg>
