<svg width="1200" height="900" viewBox="0 0 1200 900" fill="none" xmlns="http://www.w3.org/2000/svg">
  <rect width="1200" height="900" rx="48" fill="#F7F3FF"/>
  <rect x="54" y="54" width="1092" height="792" rx="36" fill="url(#bg)"/>
  <rect x="132" y="146" width="936" height="608" rx="36" fill="#FFFFFF" fill-opacity="0.08" stroke="#FFFFFF" stroke-opacity="0.12" stroke-width="2"/>
  <rect x="192" y="206" width="316" height="488" rx="32" fill="#FFFFFF" fill-opacity="0.95"/>
  <rect x="228" y="246" width="244" height="172" rx="24" fill="url(#panel)"/>
  <rect x="228" y="452" width="186" height="18" rx="9" fill="#5C308F" fill-opacity="0.18"/>
  <rect x="228" y="484" width="212" height="18" rx="9" fill="#5C308F" fill-opacity="0.12"/>
  <rect x="228" y="538" width="120" height="84" rx="20" fill="#F8B94F"/>
  <rect x="364" y="538" width="108" height="84" rx="20" fill="#F2E5FF"/>
  <rect x="554" y="210" width="456" height="214" rx="30" fill="#25143B" fill-opacity="0.98"/>
  <circle cx="641" cy="276" r="38" fill="#F7A829"/>
  <circle cx="745" cy="276" r="38" fill="#6B38A6"/>
  <circle cx="849" cy="276" r="38" fill="#FFFFFF" fill-opacity="0.16"/>
  <rect x="606" y="344" width="156" height="16" rx="8" fill="#FFFFFF" fill-opacity="0.82"/>
  <rect x="606" y="376" width="290" height="14" rx="7" fill="#FFFFFF" fill-opacity="0.18"/>
  <rect x="554" y="468" width="214" height="180" rx="28" fill="#FFFFFF" fill-opacity="0.94"/>
  <rect x="796" y="468" width="214" height="180" rx="28" fill="#F7A829" fill-opacity="0.92"/>
  <path d="M288 332C288 284.503 326.503 246 374 246V246C421.497 246 460 284.503 460 332V364H288V332Z" fill="#F0C7A0"/>
  <circle cx="374" cy="308" r="60" fill="#341951"/>
  <rect x="314" y="366" width="122" height="96" rx="30" fill="#5C308F"/>
  <path d="M613 565C613 520.817 648.817 485 693 485V485C737.183 485 773 520.817 773 565V593H613V565Z" fill="#E0B48E"/>
  <circle cx="693" cy="545" r="58" fill="#231637"/>
  <rect x="634" y="595" width="118" height="44" rx="18" fill="#6E3BA9"/>
  <text x="136" y="108" fill="#FFFFFF" fill-opacity="0.78" font-family="Arial, sans-serif" font-size="28" font-weight="700" letter-spacing="4">PLACEHOLDER</text>
  <defs>
    <linearGradient id="bg" x1="54" y1="54" x2="1146" y2="846" gradientUnits="userSpaceOnUse">
      <stop stop-color="#3A1B59"/>
      <stop offset="0.5" stop-color="#5C308F"/>
      <stop offset="1" stop-color="#F7A829"/>
    </linearGradient>
    <linearGradient id="panel" x1="228" y1="246" x2="472" y2="418" gradientUnits="userSpaceOnUse">
      <stop stop-color="#5C308F"/>
      <stop offset="1" stop-color="#F7A829"/>
    </linearGradient>
  </defs>
</svg>
